<svg width="152" height="140" viewBox="0 0 152 140" fill="none" xmlns="http://www.w3.org/2000/svg">
<g id="Group">
<path id="Vector" d="M140.427 66.7813C140.241 68.0122 140.472 69.273 140.537 70.5205C140.653 72.7099 140.826 74.8976 140.876 77.0836C141.025 83.6699 140.618 90.5387 137.354 96.424C137.09 96.8991 136.812 97.3709 136.517 97.8376C136.279 98.2147 135.997 98.5602 135.69 98.8825C132.949 101.761 130.494 104.942 128.238 108.301C124.555 113.784 121.852 121.301 116.861 125.671C112.924 129.118 107.515 130.362 102.608 131.744C98.007 133.04 94.4954 135.784 90.2678 137.861C86.2014 139.857 81.3676 140.319 76.9124 139.808C73.1766 139.379 69.5769 139.681 65.856 138.779C62.371 137.934 58.7913 136.557 55.5039 135.548C47.6269 133.131 38.5937 134.11 31.7914 128.904C26.3861 124.769 22.7599 118.713 17.0141 114.96C14.5158 113.329 11.9809 111.65 10.1138 109.326C5.31152 103.351 8.9527 94.939 6.65537 88.1035C6.38294 87.2895 6.06899 86.4789 5.71019 85.6716C5.44939 85.0371 5.167 84.4125 4.86468 83.7962C0.230155 74.3311 -0.480805 62.9624 3.01087 53.004C3.18861 52.499 3.42117 52.0107 3.71186 51.5622C5.73178 48.4442 8.48924 45.7466 9.91282 42.2898C11.2949 38.9376 11.4211 35.23 12.4876 31.7849C13.7733 27.6321 16.4377 23.3397 20.0756 20.8829C24.343 18.0042 29.3629 16.4461 33.6403 13.285C39.7399 8.77836 45.6352 3.1455 53.0023 0.770096C60.4491 -1.63354 67.2597 2.33321 74.6633 2.59733C75.3709 2.62224 76.0786 2.62557 76.7962 2.62557C76.8227 2.62557 76.8477 2.62557 76.8742 2.62557C80.4157 2.62058 83.4107 5.28502 83.7795 8.80825C83.8725 9.68865 84.0852 10.5375 84.4689 11.2999C85.4207 13.1936 85.3875 15.4361 84.4589 17.3414C82.6915 20.9677 80.9456 26.6985 83.723 32.1221C86.2928 37.1436 91.0386 38.8363 94.6632 39.3629C97.4555 39.7682 99.6947 41.8247 100.424 44.5489C101.336 47.9609 103.156 52.112 106.735 53.6685C110.7 55.3927 116.347 54.2449 120.145 53.092C122.455 52.3911 124.98 52.9077 126.776 54.5206C128.751 56.293 131.829 58.195 135.854 58.0422C135.854 58.0422 141.806 57.6053 140.424 66.783L140.427 66.7813Z" fill="#F7B658"/>
<path id="Vector_2" d="M26.3861 37.2001C28.2034 32.5291 34.4309 30.1935 39.3628 34.0855C44.293 37.9775 40.9026 47.5871 31.0123 46.8014C24.4775 46.2831 24.5705 41.8712 26.3878 37.1985L26.3861 37.2001ZM69.7729 9.65543C66.1184 8.53584 62.8477 11.5657 63.2713 15.3232C63.6135 18.358 66.238 20.8996 69.1716 21.4959C73.037 22.2816 76.3676 23.0706 76.4755 17.8215C76.4224 17.2252 76.3161 16.6487 76.1583 16.0989C75.3426 13.2418 72.6051 10.5275 69.7712 9.65709L69.7729 9.65543ZM57.9856 60.6917C57.0936 60.8794 56.3079 60.4575 55.4142 60.597C54.2863 60.7731 53.185 61.3445 52.3245 62.082C45.0056 68.3544 59.8427 76.9823 65.8743 70.969C69.3128 67.5405 69.1965 60.7698 63.8909 59.2963C62.768 58.984 61.5271 58.9708 60.4191 59.3528C59.5803 59.6419 58.9623 60.4276 58.1152 60.6601C58.072 60.6717 58.0288 60.6817 57.9873 60.6917H57.9856ZM87.3359 42.4659C86.8625 42.2449 86.4638 41.8297 86.1698 41.0423C85.6366 39.6154 86.1067 38.6104 84.7712 37.6304C80.1915 34.2699 77.4905 40.8513 77.6998 44.2466C77.939 48.1153 80.1034 52.6485 84.2247 53.5339C86.8243 54.092 89.8176 53.2366 91.6366 51.2665C92.9239 49.8711 93.7695 47.6735 93.2047 45.8047C92.1665 42.3729 89.7512 43.5954 87.3359 42.4675V42.4659ZM34.3379 81.3361C30.5356 77.7647 23.9044 76.4391 20.5871 81.7447C19.2599 83.7347 19.2599 86.3875 19.9244 88.3776C22.5772 94.346 29.8728 91.0304 35.0837 91.7015C35.5821 91.4988 35.9508 91.1201 36.2083 90.6184C36.4658 90.1184 36.612 89.4955 36.6668 88.8128C36.7216 88.1301 36.6834 87.3826 36.5704 86.6334C35.8412 85.0603 35.8412 83.7347 35.1535 82.5786C34.8877 82.0969 34.6103 81.6733 34.3379 81.3361ZM53.5238 102.148C49.7697 103.63 46.4541 108.273 49.1069 112.251C51.7597 114.904 57.0653 112.251 59.3261 115.994C59.6434 116.627 59.9906 116.962 60.3461 117.088C61.057 117.339 61.8012 116.754 62.3843 115.979C62.6749 115.59 62.9274 115.155 63.1135 114.751C67.0138 108.936 63.0354 98.9871 55.1069 101.519C54.562 101.668 54.0288 101.881 53.5238 102.148ZM97.7927 87.0703C99.5967 82.9922 99.2595 76.8029 94.0552 75.6185C91.9356 75.1351 89.3426 75.964 88.9389 78.356C88.0984 83.3377 77.9921 78.1451 79.0586 85.243C79.841 90.4506 85.2678 92.7812 90.1881 92.1649C93.4372 91.7579 96.4654 90.0669 97.791 87.0703H97.7927ZM125.779 68.6036C122.146 66.2681 113.322 69.9308 115.14 75.2364C116.957 80.5421 123.964 83.1367 128.116 80.2829C132.269 77.4275 132.985 73.9507 130.909 71.0969C128.832 68.2415 125.781 68.6053 125.781 68.6053L125.779 68.6036ZM105.582 114.593C106.141 112.251 108.794 108.273 106.141 107.608C103.489 106.946 99.5086 106.946 97.3359 109.324C96.9721 109.575 96.6249 109.849 96.2944 110.15C95.9655 110.451 95.6532 110.776 95.3641 111.132C94.1017 112.68 92.8509 114.743 93.2628 116.818C93.5602 118.316 94.6233 119.64 96.0236 120.251C98.3375 121.263 100.962 120.301 102.831 118.721C103.205 118.406 103.548 118.063 103.851 117.71C104.276 117.211 104.627 116.686 104.912 116.158C105.198 115.632 105.414 115.107 105.583 114.593H105.582Z" fill="#593412"/>
<path id="Vector_3" d="M130.842 48.0938C131.092 49.1702 130.658 50.7632 129.269 50.5904C127.311 50.3463 123.198 51.7183 122.796 49.235C122.396 46.7616 126.146 45.127 128.695 45.8845C129.729 46.1918 130.565 46.8944 130.844 48.0954L130.842 48.0938ZM148.505 55.1718C147.299 54.0323 146.146 53.4658 144.957 55.3296C143.9 56.9858 145.877 58.7565 145.445 60.396C145.013 62.0356 144.679 63.0405 146.889 63.4375C148.565 63.7399 150.562 62.3246 151.047 60.7565C151.616 58.9093 150.324 57.0455 149.11 55.7798C148.905 55.5672 148.703 55.3612 148.503 55.1718H148.505ZM146.125 47.7283C143.91 47.7283 142.914 49.8031 144.658 50.4958C146.402 51.1868 150.138 48.421 146.125 47.7283ZM103.256 3.93788C101.341 2.82826 99.4372 4.12393 100.598 5.59568C101.759 7.0691 106.381 6.5475 103.256 3.93788ZM137.035 51.1286C135.761 51.0855 133.543 52.0356 136.4 53.6984C137.371 54.2632 139.663 56.6087 139.857 54.1519C139.988 52.4974 138.635 51.1835 137.035 51.1286ZM135.635 41.8463C134.548 42.9294 133.643 44.6137 134.714 45.0672C136.246 45.7134 139.864 45.2084 139.332 42.9044C139.146 42.0988 138.145 41.2699 137.399 40.9393C137.002 40.7633 136.286 41.1968 135.633 41.8463H135.635ZM88.4174 1.57577C86.5818 1.06581 85.6665 3.69204 86.9356 4.96113C88.2047 6.23023 86.7247 7.49102 89.4755 8.34151C92.2263 9.19367 92.2263 2.63224 88.4174 1.57411V1.57577ZM90.7894 13.6322C89.8875 13.6787 89.3077 14.5956 89.5021 15.4411C89.7363 16.4561 90.5652 16.5009 91.3841 16.7883C91.8974 16.9677 92.5037 18.2949 93.1582 17.7003C93.3243 17.5508 93.3874 17.3132 93.3775 17.089C93.316 15.6886 92.4921 13.5425 90.7878 13.6322H90.7894Z" fill="#F7B658"/>
</g>
</svg>
